<?xml version="1.0" standalone="yes"?>
<svg xmlns="http://www.w3.org/2000/svg" width="435" height="134">
<path style="fill:#ffffff; stroke:none;" d="M0 0L0 92C123.247 91.9184 246.737 90 370 90L370 21L380 21L380 25C387.718 20.7246 395.988 16.4414 404.999 20.2284C425.523 28.8538 421.153 65.4694 403.996 74.811C396.279 79.0127 388.023 76.1795 380 75L380 90L435 90L435 0L89 0L89 76L79 76L79 0L0 0z"/>
<path style="fill:#000000; stroke:none;" d="M79 0L79 76L89 76L89 0L79 0M70 60C57.8313 64.6123 46.5117 74.4187 33.0008 66.0054C14.6222 54.561 15.3497 17.1847 38 10.6381C50.6805 6.97307 59.0114 15.3626 70 19C70 15.5611 70.9212 10.415 68.9722 7.39352C67.1633 4.58922 62.9906 3.61876 60 2.72145C50.5647 -0.109558 38.2108 -0.289078 29 3.47531C14.3451 9.4647 9.00154 25.2803 9.00154 40C9.00154 55.2099 14.9741 70.169 30 76.0733C38.7434 79.5089 51.1189 78.9433 60 76.2785C62.9906 75.3812 67.1633 74.4108 68.9722 71.6065C70.9212 68.5849 70 63.4389 70 60M305 60C292.831 64.6123 281.512 74.4187 268.001 66.0054C249.622 54.561 250.35 17.1847 273 10.6381C285.681 6.97308 294.011 15.3626 305 19C305 15.561 305.921 10.4151 303.972 7.39352C302.163 4.58925 297.991 3.61876 295 2.72145C285.565 -0.109558 273.211 -0.289093 264 3.47531C249.345 9.46471 244.002 25.2803 244.002 40C244.002 55.2098 249.974 70.169 265 76.0733C273.743 79.5089 286.119 78.9433 295 76.2785C297.991 75.3812 302.163 74.4108 303.972 71.6065C305.921 68.5849 305 63.4389 305 60M206 62C201.481 63.3017 197.515 65.9301 193 67.2114C183.449 69.9221 172.565 66.675 168.613 57C167.561 54.4232 167.224 51.7434 167 49L207 49C207 40.0236 207.252 30.016 199.815 23.5324C195.536 19.8025 190.464 19.0254 185 19.0008C169.013 18.9288 157.429 28.3312 157.015 45C156.735 56.2407 158.259 67.4653 169 73.6335C176.507 77.9443 187.685 78.105 196 76.331C198.878 75.7171 203.139 74.9123 204.972 72.3511C206.842 69.7391 206 65.0383 206 62M314 21L314 31C325.447 30.0019 344.22 21.5002 347 39C336.548 39 323.281 38.5184 315.105 46.213C306.374 54.429 308.427 72.2977 320 76.9907C329.252 80.7426 339.167 76.7108 347 72L347 76L357 76L357 43C357 37.2198 357.349 30.8657 353.57 26.0432C344.887 14.9618 325.875 18.6971 314 21M380 25L380 21L370 21L370 90C246.734 90 123.249 91.66 0 92C8.12492 95.9059 19.1497 96.43 28 98.1998C46.9898 101.997 66.0107 105.601 85 109.4C112.655 114.932 140.347 120.27 168 125.8C181.3 128.46 196.436 133.821 210 133.821C219.061 133.821 229.117 130.576 238 128.8C254.641 125.472 271.355 122.508 288 119.2C336.932 109.474 386.022 100.498 435 91C429.784 88.8111 422.619 90 417 90L380 90L380 75C386.959 76.5907 394.941 78.5039 402 76.1466C421.249 69.7188 425.004 33.4595 408.907 21.8542C403.955 18.2843 395.778 18.1564 390 19.5324C386.17 20.4445 383.077 22.661 380 25M101 21L101 33C101 48.7698 95.9582 77.7487 119 77.9961C121.658 78.0247 124.398 78.0874 127 77.4676C131.028 76.5083 134.432 73.9768 138 72L138 76L148 76L148 21L138 21L138 49C138 52.6054 138.833 57.5578 136.972 60.8148C133.151 67.5033 119.95 70.968 114.434 64.7716C111.381 61.3431 111.122 55.373 111.015 51C110.77 41.0122 111 30.991 111 21L101 21z"/>
<path style="fill:#ffffff; stroke:none;" d="M167 42L197 42C196.918 38.5014 196.602 35.2099 194.633 32.1852C190.638 26.0483 180.004 25.1664 174.174 29.1481C169.775 32.1523 167.762 36.9363 167 42M389 29.6373C377.185 32.9969 380 44.107 380 54C380 57.1715 378.991 62.6015 381.028 65.2971C383.993 69.2218 393.867 68.658 397.996 67.3472C405.236 65.049 407.809 56.8657 407.985 50C408.296 37.9097 403.551 25.5001 389 29.6373M347 47C342.965 47 338.998 46.9608 335 47.5903C332.3 48.0154 329.53 48.4057 327.015 49.5332C320.781 52.3284 317.153 61.0989 323.394 66.1065C329.108 70.691 343.489 67.7172 346.397 60.8148C348.031 56.9357 347 51.1478 347 47M213 133C218.951 135.497 227.58 134 234 134L279 134L435 134L435 91C419.904 92.9495 404.981 96.8726 390 99.5756C349.599 106.865 309.352 115.05 269 122.611C250.561 126.066 231.706 131.511 213 133M0 93L0 134L207 134C200.254 130.757 191.343 130.269 184 128.8C168.011 125.603 151.986 122.598 136 119.4C106.68 113.535 77.3169 107.863 48 102C32.4117 98.8828 15.8867 93.6839 0 93z"/>
</svg>
